<?xml version="1.0" standalone="no"?>
<!DOCTYPE svg PUBLIC "-//W3C//DTD SVG 20010904//EN" "http://www.w3.org/TR/2001/REC-SVG-20010904/DTD/svg10.dtd">
<!-- Created using Karbon, part of Calligra: http://www.calligra.org/karbon -->
<svg xmlns="http://www.w3.org/2000/svg" xmlns:xlink="http://www.w3.org/1999/xlink" width="595.277pt" height="841.891pt">
<defs/>
<g id="layer0">
  <ellipse id="shape0" transform="translate(53.4035, 53.4035)" rx="70.99528582090pt" ry="109.32017462687pt" cx="70.99528582090pt" cy="109.32017462687pt" fill="none" stroke="#000000" stroke-width="1.25000000000" stroke-linecap="square" stroke-linejoin="miter" stroke-miterlimit="2.00000000000"/>
  <ellipse id="shape1" transform="translate(50.2621, 234.033)" rx="72.25183955224pt" ry="88.58703805970pt" cx="72.25183955224pt" cy="88.58703805970pt" fill="none" stroke="#000000" stroke-width="1.25000000000" stroke-linecap="square" stroke-linejoin="miter" stroke-miterlimit="2.00000000000"/>
  <svg xmlns="http://www.w3.org/2000/svg" xmlns:xlink="http://www.w3.org/1999/xlink"  version="1.2" baseProfile="tiny">
<title>Qt Svg Document</title>
<desc>Generated with Qt</desc>
<defs>
</defs>
<g fill="none" stroke="black" stroke-width="1" fill-rule="evenodd" stroke-linecap="square" stroke-linejoin="bevel" >

<g fill="none" stroke="none" transform="matrix(1,0,0,1,0,0)"
font-family="DejaVu Serif" font-size="9" font-weight="400" font-style="normal" 
>
</g>

<g fill="none" stroke="none" transform="matrix(1,0,0,1,0,-0.0655738)"
font-family="DejaVu Serif" font-size="9" font-weight="400" font-style="normal" 
>
</g>

<g fill="none" stroke="none" transform="matrix(1,0,0,1,96,269.049)"
font-family="DejaVu Serif" font-size="9" font-weight="400" font-style="normal" 
>
</g>

<g fill="none" stroke="none" transform="matrix(1.25245,0,0,1.25245,96,269.049)"
font-family="DejaVu Serif" font-size="9" font-weight="400" font-style="normal" 
>
</g>

<g fill="none" stroke="none" transform="matrix(1.25245,0,0,1.25245,96,269.049)"
font-family="DejaVu Serif" font-size="9" font-weight="400" font-style="normal" 
>
</g>

<g fill="none" stroke="#1f1c1b" stroke-opacity="1" stroke-width="1" stroke-linecap="square" stroke-linejoin="bevel" transform="matrix(1.25245,0,0,1.25245,96,269.049)"
font-family="DejaVu Serif" font-size="9" font-weight="400" font-style="normal" 
>
</g>

<g fill="none" stroke="#1f1c1b" stroke-opacity="1" stroke-width="1" stroke-linecap="square" stroke-linejoin="bevel" transform="matrix(1.25245,0,0,1.25245,96,269.049)"
font-family="DejaVu Serif" font-size="9" font-weight="400" font-style="normal" 
>
</g>

<g fill="none" stroke="#1f1c1b" stroke-opacity="1" stroke-width="1" stroke-linecap="square" stroke-linejoin="bevel" transform="matrix(1.25245,0,0,1.25245,96,269.049)"
font-family="DejaVu Serif" font-size="9" font-weight="400" font-style="normal" 
>
</g>

<g fill="none" stroke="#000000" stroke-opacity="1" stroke-width="1" stroke-linecap="square" stroke-linejoin="bevel" transform="matrix(1.25245,0,0,1.25245,96,269.049)"
font-family="DejaVu Serif" font-size="9" font-weight="400" font-style="normal" 
>
<text fill="#000000" fill-opacity="1" stroke="none" xml:space="preserve" x="0" y="11" font-family="Sans Serif" font-size="12" font-weight="400" font-style="normal" 
 >NP-complete</text>
</g>

<g fill="none" stroke="#1f1c1b" stroke-opacity="1" stroke-width="1" stroke-linecap="square" stroke-linejoin="bevel" transform="matrix(1.25245,0,0,1.25245,96,269.049)"
font-family="DejaVu Serif" font-size="9" font-weight="400" font-style="normal" 
>
</g>

<g fill="none" stroke="#1f1c1b" stroke-opacity="1" stroke-width="1" stroke-linecap="square" stroke-linejoin="bevel" transform="matrix(1,0,0,1,0,0)"
font-family="DejaVu Serif" font-size="9" font-weight="400" font-style="normal" 
>
</g>

<g fill="none" stroke="#1f1c1b" stroke-opacity="1" stroke-width="1" stroke-linecap="square" stroke-linejoin="bevel" transform="matrix(1.25245,0,0,1.25245,96,269.049)"
font-family="DejaVu Serif" font-size="9" font-weight="400" font-style="normal" 
>
</g>

<g fill="none" stroke="#1f1c1b" stroke-opacity="1" stroke-width="1" stroke-linecap="square" stroke-linejoin="bevel" transform="matrix(1.25245,0,0,1.25245,96,269.049)"
font-family="DejaVu Serif" font-size="9" font-weight="400" font-style="normal" 
>
</g>

<g fill="none" stroke="none" transform="matrix(1.25245,0,0,1.25245,96,269.049)"
font-family="DejaVu Serif" font-size="9" font-weight="400" font-style="normal" 
>
</g>

<g fill="none" stroke="none" transform="matrix(1.25245,0,0,1.25245,96,269.049)"
font-family="DejaVu Serif" font-size="9" font-weight="400" font-style="normal" 
>
</g>

<g fill="none" stroke="none" transform="matrix(1.25245,0,0,1.25245,96,269.049)"
font-family="DejaVu Serif" font-size="9" font-weight="400" font-style="normal" 
>
</g>

<g fill="none" stroke="none" transform="matrix(1,0,0,1,0,0)"
font-family="DejaVu Serif" font-size="9" font-weight="400" font-style="normal" 
>
</g>

<g fill="none" stroke="none" transform="matrix(1,0,0,1,96,269.049)"
font-family="DejaVu Serif" font-size="9" font-weight="400" font-style="normal" 
>
</g>

<g fill="none" stroke="none" transform="matrix(1,0,0,1,96,269.049)"
font-family="DejaVu Serif" font-size="9" font-weight="400" font-style="normal" 
>
</g>

<g fill="none" stroke="none" transform="matrix(1,0,0,1,0,-0.0655738)"
font-family="DejaVu Serif" font-size="9" font-weight="400" font-style="normal" 
>
</g>

<g fill="none" stroke="none" transform="matrix(1,0,0,1,0,-0.0655738)"
font-family="DejaVu Serif" font-size="9" font-weight="400" font-style="normal" 
>
</g>

<g fill="none" stroke="#000000" stroke-opacity="1" stroke-width="1" stroke-linecap="square" stroke-linejoin="bevel" transform="matrix(1,0,0,1,0,0)"
font-family="DejaVu Serif" font-size="9" font-weight="400" font-style="normal" 
>
</g>
</g>
</svg>

  <svg xmlns="http://www.w3.org/2000/svg" xmlns:xlink="http://www.w3.org/1999/xlink"  version="1.2" baseProfile="tiny">
<title>Qt Svg Document</title>
<desc>Generated with Qt</desc>
<defs>
</defs>
<g fill="none" stroke="black" stroke-width="1" fill-rule="evenodd" stroke-linecap="square" stroke-linejoin="bevel" >

<g fill="none" stroke="none" transform="matrix(1,0,0,1,0,0)"
font-family="DejaVu Serif" font-size="9" font-weight="400" font-style="normal" 
>
</g>

<g fill="none" stroke="none" transform="matrix(1,0,0,1,0.434783,0.130435)"
font-family="DejaVu Serif" font-size="9" font-weight="400" font-style="normal" 
>
</g>

<g fill="none" stroke="none" transform="matrix(1,0,0,1,110,141)"
font-family="DejaVu Serif" font-size="9" font-weight="400" font-style="normal" 
>
</g>

<g fill="none" stroke="none" transform="matrix(1.24564,0,0,1.24564,110,141)"
font-family="DejaVu Serif" font-size="9" font-weight="400" font-style="normal" 
>
</g>

<g fill="none" stroke="none" transform="matrix(1.24564,0,0,1.24564,110,141)"
font-family="DejaVu Serif" font-size="9" font-weight="400" font-style="normal" 
>
</g>

<g fill="none" stroke="#1f1c1b" stroke-opacity="1" stroke-width="1" stroke-linecap="square" stroke-linejoin="bevel" transform="matrix(1.24564,0,0,1.24564,110,141)"
font-family="DejaVu Serif" font-size="9" font-weight="400" font-style="normal" 
>
</g>

<g fill="none" stroke="#1f1c1b" stroke-opacity="1" stroke-width="1" stroke-linecap="square" stroke-linejoin="bevel" transform="matrix(1.24564,0,0,1.24564,110,141)"
font-family="DejaVu Serif" font-size="9" font-weight="400" font-style="normal" 
>
</g>

<g fill="none" stroke="#1f1c1b" stroke-opacity="1" stroke-width="1" stroke-linecap="square" stroke-linejoin="bevel" transform="matrix(1.24564,0,0,1.24564,110,141)"
font-family="DejaVu Serif" font-size="9" font-weight="400" font-style="normal" 
>
</g>

<g fill="none" stroke="#000000" stroke-opacity="1" stroke-width="1" stroke-linecap="square" stroke-linejoin="bevel" transform="matrix(1.24564,0,0,1.24564,110,141)"
font-family="DejaVu Serif" font-size="9" font-weight="400" font-style="normal" 
>
<text fill="#000000" fill-opacity="1" stroke="none" xml:space="preserve" x="0" y="11" font-family="Sans Serif" font-size="12" font-weight="400" font-style="normal" 
 >NP-hard</text>
</g>

<g fill="none" stroke="#1f1c1b" stroke-opacity="1" stroke-width="1" stroke-linecap="square" stroke-linejoin="bevel" transform="matrix(1.24564,0,0,1.24564,110,141)"
font-family="DejaVu Serif" font-size="9" font-weight="400" font-style="normal" 
>
</g>

<g fill="none" stroke="#1f1c1b" stroke-opacity="1" stroke-width="1" stroke-linecap="square" stroke-linejoin="bevel" transform="matrix(1,0,0,1,0,0)"
font-family="DejaVu Serif" font-size="9" font-weight="400" font-style="normal" 
>
</g>

<g fill="none" stroke="#1f1c1b" stroke-opacity="1" stroke-width="1" stroke-linecap="square" stroke-linejoin="bevel" transform="matrix(1.24564,0,0,1.24564,110,141)"
font-family="DejaVu Serif" font-size="9" font-weight="400" font-style="normal" 
>
</g>

<g fill="none" stroke="#1f1c1b" stroke-opacity="1" stroke-width="1" stroke-linecap="square" stroke-linejoin="bevel" transform="matrix(1.24564,0,0,1.24564,110,141)"
font-family="DejaVu Serif" font-size="9" font-weight="400" font-style="normal" 
>
</g>

<g fill="none" stroke="none" transform="matrix(1.24564,0,0,1.24564,110,141)"
font-family="DejaVu Serif" font-size="9" font-weight="400" font-style="normal" 
>
</g>

<g fill="none" stroke="none" transform="matrix(1.24564,0,0,1.24564,110,141)"
font-family="DejaVu Serif" font-size="9" font-weight="400" font-style="normal" 
>
</g>

<g fill="none" stroke="none" transform="matrix(1.24564,0,0,1.24564,110,141)"
font-family="DejaVu Serif" font-size="9" font-weight="400" font-style="normal" 
>
</g>

<g fill="none" stroke="none" transform="matrix(1,0,0,1,0,0)"
font-family="DejaVu Serif" font-size="9" font-weight="400" font-style="normal" 
>
</g>

<g fill="none" stroke="none" transform="matrix(1,0,0,1,110,141)"
font-family="DejaVu Serif" font-size="9" font-weight="400" font-style="normal" 
>
</g>

<g fill="none" stroke="none" transform="matrix(1,0,0,1,110,141)"
font-family="DejaVu Serif" font-size="9" font-weight="400" font-style="normal" 
>
</g>

<g fill="none" stroke="none" transform="matrix(1,0,0,1,0.434783,0.130435)"
font-family="DejaVu Serif" font-size="9" font-weight="400" font-style="normal" 
>
</g>

<g fill="none" stroke="none" transform="matrix(1,0,0,1,0.434783,0.130435)"
font-family="DejaVu Serif" font-size="9" font-weight="400" font-style="normal" 
>
</g>

<g fill="none" stroke="#000000" stroke-opacity="1" stroke-width="1" stroke-linecap="square" stroke-linejoin="bevel" transform="matrix(1,0,0,1,0,0)"
font-family="DejaVu Serif" font-size="9" font-weight="400" font-style="normal" 
>
</g>
</g>
</svg>

  <svg xmlns="http://www.w3.org/2000/svg" xmlns:xlink="http://www.w3.org/1999/xlink"  version="1.2" baseProfile="tiny">
<title>Qt Svg Document</title>
<desc>Generated with Qt</desc>
<defs>
</defs>
<g fill="none" stroke="black" stroke-width="1" fill-rule="evenodd" stroke-linecap="square" stroke-linejoin="bevel" >

<g fill="none" stroke="none" transform="matrix(1,0,0,1,0,0)"
font-family="DejaVu Serif" font-size="9" font-weight="400" font-style="normal" 
>
</g>

<g fill="none" stroke="none" transform="matrix(1,0,0,1,0.411765,2.98529)"
font-family="DejaVu Serif" font-size="9" font-weight="400" font-style="normal" 
>
</g>

<g fill="none" stroke="none" transform="matrix(1,0,0,1,69,341.25)"
font-family="DejaVu Serif" font-size="9" font-weight="400" font-style="normal" 
>
</g>

<g fill="none" stroke="none" transform="matrix(1.24055,0,0,1.24055,69,341.25)"
font-family="DejaVu Serif" font-size="9" font-weight="400" font-style="normal" 
>
</g>

<g fill="none" stroke="none" transform="matrix(1.24055,0,0,1.24055,69,341.25)"
font-family="DejaVu Serif" font-size="9" font-weight="400" font-style="normal" 
>
</g>

<g fill="none" stroke="#1f1c1b" stroke-opacity="1" stroke-width="1" stroke-linecap="square" stroke-linejoin="bevel" transform="matrix(1.24055,0,0,1.24055,69,341.25)"
font-family="DejaVu Serif" font-size="9" font-weight="400" font-style="normal" 
>
</g>

<g fill="none" stroke="#1f1c1b" stroke-opacity="1" stroke-width="1" stroke-linecap="square" stroke-linejoin="bevel" transform="matrix(1.24055,0,0,1.24055,69,341.25)"
font-family="DejaVu Serif" font-size="9" font-weight="400" font-style="normal" 
>
</g>

<g fill="none" stroke="#1f1c1b" stroke-opacity="1" stroke-width="1" stroke-linecap="square" stroke-linejoin="bevel" transform="matrix(1.24055,0,0,1.24055,69,341.25)"
font-family="DejaVu Serif" font-size="9" font-weight="400" font-style="normal" 
>
</g>

<g fill="none" stroke="#000000" stroke-opacity="1" stroke-width="1" stroke-linecap="square" stroke-linejoin="bevel" transform="matrix(1.24055,0,0,1.24055,69,341.25)"
font-family="DejaVu Serif" font-size="9" font-weight="400" font-style="normal" 
>
<text fill="#000000" fill-opacity="1" stroke="none" xml:space="preserve" x="0" y="11" font-family="Sans Serif" font-size="12" font-weight="400" font-style="normal" 
 >NP</text>
</g>

<g fill="none" stroke="#1f1c1b" stroke-opacity="1" stroke-width="1" stroke-linecap="square" stroke-linejoin="bevel" transform="matrix(1.24055,0,0,1.24055,69,341.25)"
font-family="DejaVu Serif" font-size="9" font-weight="400" font-style="normal" 
>
</g>

<g fill="none" stroke="#1f1c1b" stroke-opacity="1" stroke-width="1" stroke-linecap="square" stroke-linejoin="bevel" transform="matrix(1,0,0,1,0,0)"
font-family="DejaVu Serif" font-size="9" font-weight="400" font-style="normal" 
>
</g>

<g fill="none" stroke="#1f1c1b" stroke-opacity="1" stroke-width="1" stroke-linecap="square" stroke-linejoin="bevel" transform="matrix(1.24055,0,0,1.24055,69,341.25)"
font-family="DejaVu Serif" font-size="9" font-weight="400" font-style="normal" 
>
</g>

<g fill="none" stroke="#1f1c1b" stroke-opacity="1" stroke-width="1" stroke-linecap="square" stroke-linejoin="bevel" transform="matrix(1.24055,0,0,1.24055,69,341.25)"
font-family="DejaVu Serif" font-size="9" font-weight="400" font-style="normal" 
>
</g>

<g fill="none" stroke="none" transform="matrix(1.24055,0,0,1.24055,69,341.25)"
font-family="DejaVu Serif" font-size="9" font-weight="400" font-style="normal" 
>
</g>

<g fill="none" stroke="none" transform="matrix(1.24055,0,0,1.24055,69,341.25)"
font-family="DejaVu Serif" font-size="9" font-weight="400" font-style="normal" 
>
</g>

<g fill="none" stroke="none" transform="matrix(1.24055,0,0,1.24055,69,341.25)"
font-family="DejaVu Serif" font-size="9" font-weight="400" font-style="normal" 
>
</g>

<g fill="none" stroke="none" transform="matrix(1,0,0,1,0,0)"
font-family="DejaVu Serif" font-size="9" font-weight="400" font-style="normal" 
>
</g>

<g fill="none" stroke="none" transform="matrix(1,0,0,1,69,341.25)"
font-family="DejaVu Serif" font-size="9" font-weight="400" font-style="normal" 
>
</g>

<g fill="none" stroke="none" transform="matrix(1,0,0,1,69,341.25)"
font-family="DejaVu Serif" font-size="9" font-weight="400" font-style="normal" 
>
</g>

<g fill="none" stroke="none" transform="matrix(1,0,0,1,0.411765,2.98529)"
font-family="DejaVu Serif" font-size="9" font-weight="400" font-style="normal" 
>
</g>

<g fill="none" stroke="none" transform="matrix(1,0,0,1,0.411765,2.98529)"
font-family="DejaVu Serif" font-size="9" font-weight="400" font-style="normal" 
>
</g>

<g fill="none" stroke="#000000" stroke-opacity="1" stroke-width="1" stroke-linecap="square" stroke-linejoin="bevel" transform="matrix(1,0,0,1,0,0)"
font-family="DejaVu Serif" font-size="9" font-weight="400" font-style="normal" 
>
</g>
</g>
</svg>

  <ellipse id="shape2" transform="translate(87.9588, 386.39)" rx="42.72282686567pt" ry="27.64418208955pt" cx="42.72282686567pt" cy="27.64418208955pt" fill="none" stroke="#000000" stroke-width="1.25000000000" stroke-linecap="square" stroke-linejoin="miter" stroke-miterlimit="2.00000000000" stroke-dasharray="4,2"/>
  <svg xmlns="http://www.w3.org/2000/svg" xmlns:xlink="http://www.w3.org/1999/xlink"  version="1.2" baseProfile="tiny">
<title>Qt Svg Document</title>
<desc>Generated with Qt</desc>
<defs>
</defs>
<g fill="none" stroke="black" stroke-width="1" fill-rule="evenodd" stroke-linecap="square" stroke-linejoin="bevel" >

<g fill="none" stroke="none" transform="matrix(1,0,0,1,0,0)"
font-family="DejaVu Serif" font-size="9" font-weight="400" font-style="normal" 
>
</g>

<g fill="none" stroke="none" transform="matrix(1,0,0,1,-0.0384615,-1.55769)"
font-family="DejaVu Serif" font-size="9" font-weight="400" font-style="normal" 
>
</g>

<g fill="none" stroke="none" transform="matrix(1,0,0,1,134,413.173)"
font-family="DejaVu Serif" font-size="9" font-weight="400" font-style="normal" 
>
</g>

<g fill="none" stroke="none" transform="matrix(1.25496,0,0,1.25496,134,413.173)"
font-family="DejaVu Serif" font-size="9" font-weight="400" font-style="normal" 
>
</g>

<g fill="none" stroke="none" transform="matrix(1.25496,0,0,1.25496,134,413.173)"
font-family="DejaVu Serif" font-size="9" font-weight="400" font-style="normal" 
>
</g>

<g fill="none" stroke="#1f1c1b" stroke-opacity="1" stroke-width="1" stroke-linecap="square" stroke-linejoin="bevel" transform="matrix(1.25496,0,0,1.25496,134,413.173)"
font-family="DejaVu Serif" font-size="9" font-weight="400" font-style="normal" 
>
</g>

<g fill="none" stroke="#1f1c1b" stroke-opacity="1" stroke-width="1" stroke-linecap="square" stroke-linejoin="bevel" transform="matrix(1.25496,0,0,1.25496,134,413.173)"
font-family="DejaVu Serif" font-size="9" font-weight="400" font-style="normal" 
>
</g>

<g fill="none" stroke="#1f1c1b" stroke-opacity="1" stroke-width="1" stroke-linecap="square" stroke-linejoin="bevel" transform="matrix(1.25496,0,0,1.25496,134,413.173)"
font-family="DejaVu Serif" font-size="9" font-weight="400" font-style="normal" 
>
</g>

<g fill="none" stroke="#000000" stroke-opacity="1" stroke-width="1" stroke-linecap="square" stroke-linejoin="bevel" transform="matrix(1.25496,0,0,1.25496,134,413.173)"
font-family="DejaVu Serif" font-size="9" font-weight="400" font-style="normal" 
>
<text fill="#000000" fill-opacity="1" stroke="none" xml:space="preserve" x="0" y="11" font-family="Sans Serif" font-size="12" font-weight="400" font-style="normal" 
 >P</text>
</g>

<g fill="none" stroke="#1f1c1b" stroke-opacity="1" stroke-width="1" stroke-linecap="square" stroke-linejoin="bevel" transform="matrix(1.25496,0,0,1.25496,134,413.173)"
font-family="DejaVu Serif" font-size="9" font-weight="400" font-style="normal" 
>
</g>

<g fill="none" stroke="#1f1c1b" stroke-opacity="1" stroke-width="1" stroke-linecap="square" stroke-linejoin="bevel" transform="matrix(1,0,0,1,0,0)"
font-family="DejaVu Serif" font-size="9" font-weight="400" font-style="normal" 
>
</g>

<g fill="none" stroke="#1f1c1b" stroke-opacity="1" stroke-width="1" stroke-linecap="square" stroke-linejoin="bevel" transform="matrix(1.25496,0,0,1.25496,134,413.173)"
font-family="DejaVu Serif" font-size="9" font-weight="400" font-style="normal" 
>
</g>

<g fill="none" stroke="#1f1c1b" stroke-opacity="1" stroke-width="1" stroke-linecap="square" stroke-linejoin="bevel" transform="matrix(1.25496,0,0,1.25496,134,413.173)"
font-family="DejaVu Serif" font-size="9" font-weight="400" font-style="normal" 
>
</g>

<g fill="none" stroke="none" transform="matrix(1.25496,0,0,1.25496,134,413.173)"
font-family="DejaVu Serif" font-size="9" font-weight="400" font-style="normal" 
>
</g>

<g fill="none" stroke="none" transform="matrix(1.25496,0,0,1.25496,134,413.173)"
font-family="DejaVu Serif" font-size="9" font-weight="400" font-style="normal" 
>
</g>

<g fill="none" stroke="none" transform="matrix(1.25496,0,0,1.25496,134,413.173)"
font-family="DejaVu Serif" font-size="9" font-weight="400" font-style="normal" 
>
</g>

<g fill="none" stroke="none" transform="matrix(1,0,0,1,0,0)"
font-family="DejaVu Serif" font-size="9" font-weight="400" font-style="normal" 
>
</g>

<g fill="none" stroke="none" transform="matrix(1,0,0,1,134,413.173)"
font-family="DejaVu Serif" font-size="9" font-weight="400" font-style="normal" 
>
</g>

<g fill="none" stroke="none" transform="matrix(1,0,0,1,134,413.173)"
font-family="DejaVu Serif" font-size="9" font-weight="400" font-style="normal" 
>
</g>

<g fill="none" stroke="none" transform="matrix(1,0,0,1,-0.0384615,-1.55769)"
font-family="DejaVu Serif" font-size="9" font-weight="400" font-style="normal" 
>
</g>

<g fill="none" stroke="none" transform="matrix(1,0,0,1,-0.0384615,-1.55769)"
font-family="DejaVu Serif" font-size="9" font-weight="400" font-style="normal" 
>
</g>

<g fill="none" stroke="#000000" stroke-opacity="1" stroke-width="1" stroke-linecap="square" stroke-linejoin="bevel" transform="matrix(1,0,0,1,0,0)"
font-family="DejaVu Serif" font-size="9" font-weight="400" font-style="normal" 
>
</g>
</g>
</svg>

  <path id="shape3" transform="translate(293.719, 47.1208)" fill="none" stroke="#000000" stroke-width="1.25000000000" stroke-linecap="square" stroke-linejoin="miter" stroke-miterlimit="2.00000000000" d="M177.488 136.65C177.488 61.1804 137.756 4.62119e-15 88.7441 0C39.7321 -4.62119e-15 6.00224e-15 61.1804 0 136.65C-6.00224e-15 212.12 39.7321 273.3 88.7441 273.3C137.756 273.3 177.488 212.12 177.488 136.65"/>
  <path id="shape4" transform="translate(318.851, 183.771)" fill="none" stroke="#000000" stroke-width="1.25000000000" stroke-linecap="square" stroke-linejoin="miter" stroke-miterlimit="2.00000000000" d="M127.226 68.3251C127.226 30.5902 98.7455 2.3106e-15 63.613 0C28.4805 -2.3106e-15 4.30249e-15 30.5902 0 68.3251C-4.30249e-15 106.06 28.4805 136.65 63.613 136.65C98.7455 136.65 127.226 106.06 127.226 68.3251"/>
  <svg xmlns="http://www.w3.org/2000/svg" xmlns:xlink="http://www.w3.org/1999/xlink"  version="1.2" baseProfile="tiny">
<title>Qt Svg Document</title>
<desc>Generated with Qt</desc>
<defs>
</defs>
<g fill="none" stroke="black" stroke-width="1" fill-rule="evenodd" stroke-linecap="square" stroke-linejoin="bevel" >

<g fill="none" stroke="none" transform="matrix(1,0,0,1,0,0)"
font-family="DejaVu Serif" font-size="9" font-weight="400" font-style="normal" 
>
</g>

<g fill="none" stroke="none" transform="matrix(1,0,0,1,0.956522,0.391304)"
font-family="DejaVu Serif" font-size="9" font-weight="400" font-style="normal" 
>
</g>

<g fill="none" stroke="none" transform="matrix(1,0,0,1,350,135)"
font-family="DejaVu Serif" font-size="9" font-weight="400" font-style="normal" 
>
</g>

<g fill="none" stroke="none" transform="matrix(1.24564,0,0,1.24564,350,135)"
font-family="DejaVu Serif" font-size="9" font-weight="400" font-style="normal" 
>
</g>

<g fill="none" stroke="none" transform="matrix(1.24564,0,0,1.24564,350,135)"
font-family="DejaVu Serif" font-size="9" font-weight="400" font-style="normal" 
>
</g>

<g fill="none" stroke="#1f1c1b" stroke-opacity="1" stroke-width="1" stroke-linecap="square" stroke-linejoin="bevel" transform="matrix(1.24564,0,0,1.24564,350,135)"
font-family="DejaVu Serif" font-size="9" font-weight="400" font-style="normal" 
>
</g>

<g fill="none" stroke="#1f1c1b" stroke-opacity="1" stroke-width="1" stroke-linecap="square" stroke-linejoin="bevel" transform="matrix(1.24564,0,0,1.24564,350,135)"
font-family="DejaVu Serif" font-size="9" font-weight="400" font-style="normal" 
>
</g>

<g fill="none" stroke="#1f1c1b" stroke-opacity="1" stroke-width="1" stroke-linecap="square" stroke-linejoin="bevel" transform="matrix(1.24564,0,0,1.24564,350,135)"
font-family="DejaVu Serif" font-size="9" font-weight="400" font-style="normal" 
>
</g>

<g fill="none" stroke="#000000" stroke-opacity="1" stroke-width="1" stroke-linecap="square" stroke-linejoin="bevel" transform="matrix(1.24564,0,0,1.24564,350,135)"
font-family="DejaVu Serif" font-size="9" font-weight="400" font-style="normal" 
>
<text fill="#000000" fill-opacity="1" stroke="none" xml:space="preserve" x="0" y="11" font-family="Sans Serif" font-size="12" font-weight="400" font-style="normal" 
 >NP-hard</text>
</g>

<g fill="none" stroke="#1f1c1b" stroke-opacity="1" stroke-width="1" stroke-linecap="square" stroke-linejoin="bevel" transform="matrix(1.24564,0,0,1.24564,350,135)"
font-family="DejaVu Serif" font-size="9" font-weight="400" font-style="normal" 
>
</g>

<g fill="none" stroke="#1f1c1b" stroke-opacity="1" stroke-width="1" stroke-linecap="square" stroke-linejoin="bevel" transform="matrix(1,0,0,1,0,0)"
font-family="DejaVu Serif" font-size="9" font-weight="400" font-style="normal" 
>
</g>

<g fill="none" stroke="#1f1c1b" stroke-opacity="1" stroke-width="1" stroke-linecap="square" stroke-linejoin="bevel" transform="matrix(1.24564,0,0,1.24564,350,135)"
font-family="DejaVu Serif" font-size="9" font-weight="400" font-style="normal" 
>
</g>

<g fill="none" stroke="#1f1c1b" stroke-opacity="1" stroke-width="1" stroke-linecap="square" stroke-linejoin="bevel" transform="matrix(1.24564,0,0,1.24564,350,135)"
font-family="DejaVu Serif" font-size="9" font-weight="400" font-style="normal" 
>
</g>

<g fill="none" stroke="none" transform="matrix(1.24564,0,0,1.24564,350,135)"
font-family="DejaVu Serif" font-size="9" font-weight="400" font-style="normal" 
>
</g>

<g fill="none" stroke="none" transform="matrix(1.24564,0,0,1.24564,350,135)"
font-family="DejaVu Serif" font-size="9" font-weight="400" font-style="normal" 
>
</g>

<g fill="none" stroke="none" transform="matrix(1.24564,0,0,1.24564,350,135)"
font-family="DejaVu Serif" font-size="9" font-weight="400" font-style="normal" 
>
</g>

<g fill="none" stroke="none" transform="matrix(1,0,0,1,0,0)"
font-family="DejaVu Serif" font-size="9" font-weight="400" font-style="normal" 
>
</g>

<g fill="none" stroke="none" transform="matrix(1,0,0,1,350,135)"
font-family="DejaVu Serif" font-size="9" font-weight="400" font-style="normal" 
>
</g>

<g fill="none" stroke="none" transform="matrix(1,0,0,1,350,135)"
font-family="DejaVu Serif" font-size="9" font-weight="400" font-style="normal" 
>
</g>

<g fill="none" stroke="none" transform="matrix(1,0,0,1,0.956522,0.391304)"
font-family="DejaVu Serif" font-size="9" font-weight="400" font-style="normal" 
>
</g>

<g fill="none" stroke="none" transform="matrix(1,0,0,1,0.956522,0.391304)"
font-family="DejaVu Serif" font-size="9" font-weight="400" font-style="normal" 
>
</g>

<g fill="none" stroke="#000000" stroke-opacity="1" stroke-width="1" stroke-linecap="square" stroke-linejoin="bevel" transform="matrix(1,0,0,1,0,0)"
font-family="DejaVu Serif" font-size="9" font-weight="400" font-style="normal" 
>
</g>
</g>
</svg>

  <svg xmlns="http://www.w3.org/2000/svg" xmlns:xlink="http://www.w3.org/1999/xlink"  version="1.2" baseProfile="tiny">
<title>Qt Svg Document</title>
<desc>Generated with Qt</desc>
<defs>
</defs>
<g fill="none" stroke="black" stroke-width="1" fill-rule="evenodd" stroke-linecap="square" stroke-linejoin="bevel" >

<g fill="none" stroke="none" transform="matrix(1,0,0,1,0,0)"
font-family="DejaVu Serif" font-size="9" font-weight="400" font-style="normal" 
>
</g>

<g fill="none" stroke="none" transform="matrix(1,0,0,1,1.32258,1.20161)"
font-family="DejaVu Serif" font-size="9" font-weight="400" font-style="normal" 
>
</g>

<g fill="none" stroke="none" transform="matrix(1,0,0,1,333,228.056)"
font-family="DejaVu Serif" font-size="9" font-weight="400" font-style="normal" 
>
</g>

<g fill="none" stroke="none" transform="matrix(1.24508,0,0,1.24508,333,228.056)"
font-family="DejaVu Serif" font-size="9" font-weight="400" font-style="normal" 
>
</g>

<g fill="none" stroke="none" transform="matrix(1.24508,0,0,1.24508,333,228.056)"
font-family="DejaVu Serif" font-size="9" font-weight="400" font-style="normal" 
>
</g>

<g fill="none" stroke="#1f1c1b" stroke-opacity="1" stroke-width="1" stroke-linecap="square" stroke-linejoin="bevel" transform="matrix(1.24508,0,0,1.24508,333,228.056)"
font-family="DejaVu Serif" font-size="9" font-weight="400" font-style="normal" 
>
</g>

<g fill="none" stroke="#1f1c1b" stroke-opacity="1" stroke-width="1" stroke-linecap="square" stroke-linejoin="bevel" transform="matrix(1.24508,0,0,1.24508,333,228.056)"
font-family="DejaVu Serif" font-size="9" font-weight="400" font-style="normal" 
>
</g>

<g fill="none" stroke="#1f1c1b" stroke-opacity="1" stroke-width="1" stroke-linecap="square" stroke-linejoin="bevel" transform="matrix(1.24508,0,0,1.24508,333,228.056)"
font-family="DejaVu Serif" font-size="9" font-weight="400" font-style="normal" 
>
</g>

<g fill="none" stroke="#000000" stroke-opacity="1" stroke-width="1" stroke-linecap="square" stroke-linejoin="bevel" transform="matrix(1.24508,0,0,1.24508,333,228.056)"
font-family="DejaVu Serif" font-size="9" font-weight="400" font-style="normal" 
>
<text fill="#000000" fill-opacity="1" stroke="none" xml:space="preserve" x="0" y="11" font-family="Sans Serif" font-size="12" font-weight="400" font-style="normal" 
 >P = NP =</text>
</g>

<g fill="none" stroke="#000000" stroke-opacity="1" stroke-width="1" stroke-linecap="square" stroke-linejoin="bevel" transform="matrix(1.24508,0,0,1.24508,333,228.056)"
font-family="DejaVu Serif" font-size="9" font-weight="400" font-style="normal" 
>
<text fill="#000000" fill-opacity="1" stroke="none" xml:space="preserve" x="0" y="25.3906" font-family="Sans Serif" font-size="12" font-weight="400" font-style="normal" 
 >NP-complete</text>
</g>

<g fill="none" stroke="#1f1c1b" stroke-opacity="1" stroke-width="1" stroke-linecap="square" stroke-linejoin="bevel" transform="matrix(1.24508,0,0,1.24508,333,228.056)"
font-family="DejaVu Serif" font-size="9" font-weight="400" font-style="normal" 
>
</g>

<g fill="none" stroke="#1f1c1b" stroke-opacity="1" stroke-width="1" stroke-linecap="square" stroke-linejoin="bevel" transform="matrix(1,0,0,1,0,0)"
font-family="DejaVu Serif" font-size="9" font-weight="400" font-style="normal" 
>
</g>

<g fill="none" stroke="#1f1c1b" stroke-opacity="1" stroke-width="1" stroke-linecap="square" stroke-linejoin="bevel" transform="matrix(1.24508,0,0,1.24508,333,228.056)"
font-family="DejaVu Serif" font-size="9" font-weight="400" font-style="normal" 
>
</g>

<g fill="none" stroke="#1f1c1b" stroke-opacity="1" stroke-width="1" stroke-linecap="square" stroke-linejoin="bevel" transform="matrix(1.24508,0,0,1.24508,333,228.056)"
font-family="DejaVu Serif" font-size="9" font-weight="400" font-style="normal" 
>
</g>

<g fill="none" stroke="none" transform="matrix(1.24508,0,0,1.24508,333,228.056)"
font-family="DejaVu Serif" font-size="9" font-weight="400" font-style="normal" 
>
</g>

<g fill="none" stroke="none" transform="matrix(1.24508,0,0,1.24508,333,228.056)"
font-family="DejaVu Serif" font-size="9" font-weight="400" font-style="normal" 
>
</g>

<g fill="none" stroke="none" transform="matrix(1.24508,0,0,1.24508,333,228.056)"
font-family="DejaVu Serif" font-size="9" font-weight="400" font-style="normal" 
>
</g>

<g fill="none" stroke="none" transform="matrix(1,0,0,1,0,0)"
font-family="DejaVu Serif" font-size="9" font-weight="400" font-style="normal" 
>
</g>

<g fill="none" stroke="none" transform="matrix(1,0,0,1,333,228.056)"
font-family="DejaVu Serif" font-size="9" font-weight="400" font-style="normal" 
>
</g>

<g fill="none" stroke="none" transform="matrix(1,0,0,1,333,228.056)"
font-family="DejaVu Serif" font-size="9" font-weight="400" font-style="normal" 
>
</g>

<g fill="none" stroke="none" transform="matrix(1,0,0,1,1.32258,1.20161)"
font-family="DejaVu Serif" font-size="9" font-weight="400" font-style="normal" 
>
</g>

<g fill="none" stroke="none" transform="matrix(1,0,0,1,1.32258,1.20161)"
font-family="DejaVu Serif" font-size="9" font-weight="400" font-style="normal" 
>
</g>

<g fill="none" stroke="#000000" stroke-opacity="1" stroke-width="1" stroke-linecap="square" stroke-linejoin="bevel" transform="matrix(1,0,0,1,0,0)"
font-family="DejaVu Serif" font-size="9" font-weight="400" font-style="normal" 
>
</g>
</g>
</svg>

  <svg xmlns="http://www.w3.org/2000/svg" xmlns:xlink="http://www.w3.org/1999/xlink"  version="1.2" baseProfile="tiny">
<title>Qt Svg Document</title>
<desc>Generated with Qt</desc>
<defs>
</defs>
<g fill="none" stroke="black" stroke-width="1" fill-rule="evenodd" stroke-linecap="square" stroke-linejoin="bevel" >

<g fill="none" stroke="none" transform="matrix(1,0,0,1,0,0)"
font-family="DejaVu Serif" font-size="9" font-weight="400" font-style="normal" 
>
</g>

<g fill="none" stroke="none" transform="matrix(1,0,0,1,0.127929,0.0374505)"
font-family="DejaVu Serif" font-size="9" font-weight="400" font-style="normal" 
>
</g>

<g fill="none" stroke="none" transform="matrix(1,0,0,1,66,11.0161)"
font-family="DejaVu Serif" font-size="9" font-weight="400" font-style="normal" 
>
</g>

<g fill="none" stroke="none" transform="matrix(1.24936,0,0,1.24936,66,11.0161)"
font-family="DejaVu Serif" font-size="9" font-weight="400" font-style="normal" 
>
</g>

<g fill="none" stroke="none" transform="matrix(1.24936,0,0,1.24936,66,11.0161)"
font-family="DejaVu Serif" font-size="9" font-weight="400" font-style="normal" 
>
</g>

<g fill="none" stroke="#1f1c1b" stroke-opacity="1" stroke-width="1" stroke-linecap="square" stroke-linejoin="bevel" transform="matrix(1.24936,0,0,1.24936,66,11.0161)"
font-family="DejaVu Serif" font-size="9" font-weight="400" font-style="normal" 
>
</g>

<g fill="none" stroke="#1f1c1b" stroke-opacity="1" stroke-width="1" stroke-linecap="square" stroke-linejoin="bevel" transform="matrix(1.24936,0,0,1.24936,66,11.0161)"
font-family="DejaVu Serif" font-size="9" font-weight="400" font-style="normal" 
>
</g>

<g fill="none" stroke="#1f1c1b" stroke-opacity="1" stroke-width="1" stroke-linecap="square" stroke-linejoin="bevel" transform="matrix(1.24936,0,0,1.24936,66,11.0161)"
font-family="DejaVu Serif" font-size="9" font-weight="400" font-style="normal" 
>
</g>

<g fill="none" stroke="#1f1c1b" stroke-opacity="1" stroke-width="1" stroke-linecap="square" stroke-linejoin="bevel" transform="matrix(1.24936,0,0,1.24936,66,11.0161)"
font-family="DejaVu Serif" font-size="9" font-weight="400" font-style="normal" 
>
</g>

<g fill="none" stroke="#1f1c1b" stroke-opacity="1" stroke-width="1" stroke-linecap="square" stroke-linejoin="bevel" transform="matrix(1,0,0,1,0,0)"
font-family="DejaVu Serif" font-size="9" font-weight="400" font-style="normal" 
>
</g>

<g fill="none" stroke="#1f1c1b" stroke-opacity="1" stroke-width="1" stroke-linecap="square" stroke-linejoin="bevel" transform="matrix(1.24936,0,0,1.24936,66,11.0161)"
font-family="DejaVu Serif" font-size="9" font-weight="400" font-style="normal" 
>
</g>

<g fill="none" stroke="#1f1c1b" stroke-opacity="1" stroke-width="1" stroke-linecap="square" stroke-linejoin="bevel" transform="matrix(1.24936,0,0,1.24936,66,11.0161)"
font-family="DejaVu Serif" font-size="9" font-weight="400" font-style="normal" 
>
</g>

<g fill="none" stroke="none" transform="matrix(1.24936,0,0,1.24936,66,11.0161)"
font-family="DejaVu Serif" font-size="9" font-weight="400" font-style="normal" 
>
</g>

<g fill="none" stroke="none" transform="matrix(1.24936,0,0,1.24936,66,11.0161)"
font-family="DejaVu Serif" font-size="9" font-weight="400" font-style="normal" 
>
</g>

<g fill="none" stroke="none" transform="matrix(1.24936,0,0,1.24936,66,11.0161)"
font-family="DejaVu Serif" font-size="9" font-weight="400" font-style="normal" 
>
</g>

<g fill="none" stroke="none" transform="matrix(1,0,0,1,0,0)"
font-family="DejaVu Serif" font-size="9" font-weight="400" font-style="normal" 
>
</g>

<g fill="none" stroke="none" transform="matrix(1,0,0,1,66,11.0161)"
font-family="DejaVu Serif" font-size="9" font-weight="400" font-style="normal" 
>
</g>

<g fill="none" stroke="none" transform="matrix(1,0,0,1,66,11.0161)"
font-family="DejaVu Serif" font-size="9" font-weight="400" font-style="normal" 
>
</g>

<g fill="none" stroke="none" transform="matrix(1,0,0,1,0.127929,0.0374505)"
font-family="DejaVu Serif" font-size="9" font-weight="400" font-style="normal" 
>
</g>

<g fill="none" stroke="none" transform="matrix(1,0,0,1,0.127929,0.0374505)"
font-family="DejaVu Serif" font-size="9" font-weight="400" font-style="normal" 
>
</g>

<g fill="none" stroke="#000000" stroke-opacity="1" stroke-width="1" stroke-linecap="square" stroke-linejoin="bevel" transform="matrix(1,0,0,1,0,0)"
font-family="DejaVu Serif" font-size="9" font-weight="400" font-style="normal" 
>
</g>
</g>
</svg>

  <svg xmlns="http://www.w3.org/2000/svg" xmlns:xlink="http://www.w3.org/1999/xlink"  version="1.2" baseProfile="tiny">
<title>Qt Svg Document</title>
<desc>Generated with Qt</desc>
<defs>
</defs>
<g fill="none" stroke="black" stroke-width="1" fill-rule="evenodd" stroke-linecap="square" stroke-linejoin="bevel" >

<g fill="none" stroke="none" transform="matrix(1,0,0,1,0,0)"
font-family="DejaVu Serif" font-size="9" font-weight="400" font-style="normal" 
>
</g>

<g fill="none" stroke="none" transform="matrix(1,0,0,1,2.525,0.15)"
font-family="DejaVu Serif" font-size="9" font-weight="400" font-style="normal" 
>
</g>

<g fill="none" stroke="none" transform="matrix(1,0,0,1,104.825,11)"
font-family="DejaVu Serif" font-size="9" font-weight="400" font-style="normal" 
>
</g>

<g fill="none" stroke="none" transform="matrix(1.23353,0,0,1.23353,104.825,11)"
font-family="DejaVu Serif" font-size="9" font-weight="400" font-style="normal" 
>
</g>

<g fill="none" stroke="none" transform="matrix(1.23353,0,0,1.23353,104.825,11)"
font-family="DejaVu Serif" font-size="9" font-weight="400" font-style="normal" 
>
</g>

<g fill="none" stroke="#1f1c1b" stroke-opacity="1" stroke-width="1" stroke-linecap="square" stroke-linejoin="bevel" transform="matrix(1.23353,0,0,1.23353,104.825,11)"
font-family="DejaVu Serif" font-size="9" font-weight="400" font-style="normal" 
>
</g>

<g fill="none" stroke="#1f1c1b" stroke-opacity="1" stroke-width="1" stroke-linecap="square" stroke-linejoin="bevel" transform="matrix(1.23353,0,0,1.23353,104.825,11)"
font-family="DejaVu Serif" font-size="9" font-weight="400" font-style="normal" 
>
</g>

<g fill="none" stroke="#1f1c1b" stroke-opacity="1" stroke-width="1" stroke-linecap="square" stroke-linejoin="bevel" transform="matrix(1.23353,0,0,1.23353,104.825,11)"
font-family="DejaVu Serif" font-size="9" font-weight="400" font-style="normal" 
>
</g>

<g fill="none" stroke="#000000" stroke-opacity="1" stroke-width="1" stroke-linecap="square" stroke-linejoin="bevel" transform="matrix(1.23353,0,0,1.23353,104.825,11)"
font-family="DejaVu Serif" font-size="9" font-weight="400" font-style="normal" 
>
<text fill="#000000" fill-opacity="1" stroke="none" xml:space="preserve" x="0" y="17" font-family="Sans Serif" font-size="18" font-weight="400" font-style="normal" 
 >P ≠ NP</text>
</g>

<g fill="none" stroke="#1f1c1b" stroke-opacity="1" stroke-width="1" stroke-linecap="square" stroke-linejoin="bevel" transform="matrix(1.23353,0,0,1.23353,104.825,11)"
font-family="DejaVu Serif" font-size="9" font-weight="400" font-style="normal" 
>
</g>

<g fill="none" stroke="#1f1c1b" stroke-opacity="1" stroke-width="1" stroke-linecap="square" stroke-linejoin="bevel" transform="matrix(1,0,0,1,0,0)"
font-family="DejaVu Serif" font-size="9" font-weight="400" font-style="normal" 
>
</g>

<g fill="none" stroke="#1f1c1b" stroke-opacity="1" stroke-width="1" stroke-linecap="square" stroke-linejoin="bevel" transform="matrix(1.23353,0,0,1.23353,104.825,11)"
font-family="DejaVu Serif" font-size="9" font-weight="400" font-style="normal" 
>
</g>

<g fill="none" stroke="#1f1c1b" stroke-opacity="1" stroke-width="1" stroke-linecap="square" stroke-linejoin="bevel" transform="matrix(1.23353,0,0,1.23353,104.825,11)"
font-family="DejaVu Serif" font-size="9" font-weight="400" font-style="normal" 
>
</g>

<g fill="none" stroke="none" transform="matrix(1.23353,0,0,1.23353,104.825,11)"
font-family="DejaVu Serif" font-size="9" font-weight="400" font-style="normal" 
>
</g>

<g fill="none" stroke="none" transform="matrix(1.23353,0,0,1.23353,104.825,11)"
font-family="DejaVu Serif" font-size="9" font-weight="400" font-style="normal" 
>
</g>

<g fill="none" stroke="none" transform="matrix(1.23353,0,0,1.23353,104.825,11)"
font-family="DejaVu Serif" font-size="9" font-weight="400" font-style="normal" 
>
</g>

<g fill="none" stroke="none" transform="matrix(1,0,0,1,0,0)"
font-family="DejaVu Serif" font-size="9" font-weight="400" font-style="normal" 
>
</g>

<g fill="none" stroke="none" transform="matrix(1,0,0,1,104.825,11)"
font-family="DejaVu Serif" font-size="9" font-weight="400" font-style="normal" 
>
</g>

<g fill="none" stroke="none" transform="matrix(1,0,0,1,104.825,11)"
font-family="DejaVu Serif" font-size="9" font-weight="400" font-style="normal" 
>
</g>

<g fill="none" stroke="none" transform="matrix(1,0,0,1,2.525,0.15)"
font-family="DejaVu Serif" font-size="9" font-weight="400" font-style="normal" 
>
</g>

<g fill="none" stroke="none" transform="matrix(1,0,0,1,2.525,0.15)"
font-family="DejaVu Serif" font-size="9" font-weight="400" font-style="normal" 
>
</g>

<g fill="none" stroke="#000000" stroke-opacity="1" stroke-width="1" stroke-linecap="square" stroke-linejoin="bevel" transform="matrix(1,0,0,1,0,0)"
font-family="DejaVu Serif" font-size="9" font-weight="400" font-style="normal" 
>
</g>
</g>
</svg>

  <svg xmlns="http://www.w3.org/2000/svg" xmlns:xlink="http://www.w3.org/1999/xlink"  version="1.2" baseProfile="tiny">
<title>Qt Svg Document</title>
<desc>Generated with Qt</desc>
<defs>
</defs>
<g fill="none" stroke="black" stroke-width="1" fill-rule="evenodd" stroke-linecap="square" stroke-linejoin="bevel" >

<g fill="none" stroke="none" transform="matrix(1,0,0,1,0,0)"
font-family="DejaVu Serif" font-size="9" font-weight="400" font-style="normal" 
>
</g>

<g fill="none" stroke="none" transform="matrix(1,0,0,1,4.925,-0.3)"
font-family="DejaVu Serif" font-size="9" font-weight="400" font-style="normal" 
>
</g>

<g fill="none" stroke="none" transform="matrix(1,0,0,1,342.825,9)"
font-family="DejaVu Serif" font-size="9" font-weight="400" font-style="normal" 
>
</g>

<g fill="none" stroke="none" transform="matrix(1.23353,0,0,1.23353,342.825,9)"
font-family="DejaVu Serif" font-size="9" font-weight="400" font-style="normal" 
>
</g>

<g fill="none" stroke="none" transform="matrix(1.23353,0,0,1.23353,342.825,9)"
font-family="DejaVu Serif" font-size="9" font-weight="400" font-style="normal" 
>
</g>

<g fill="none" stroke="#1f1c1b" stroke-opacity="1" stroke-width="1" stroke-linecap="square" stroke-linejoin="bevel" transform="matrix(1.23353,0,0,1.23353,342.825,9)"
font-family="DejaVu Serif" font-size="9" font-weight="400" font-style="normal" 
>
</g>

<g fill="none" stroke="#1f1c1b" stroke-opacity="1" stroke-width="1" stroke-linecap="square" stroke-linejoin="bevel" transform="matrix(1.23353,0,0,1.23353,342.825,9)"
font-family="DejaVu Serif" font-size="9" font-weight="400" font-style="normal" 
>
</g>

<g fill="none" stroke="#1f1c1b" stroke-opacity="1" stroke-width="1" stroke-linecap="square" stroke-linejoin="bevel" transform="matrix(1.23353,0,0,1.23353,342.825,9)"
font-family="DejaVu Serif" font-size="9" font-weight="400" font-style="normal" 
>
</g>

<g fill="none" stroke="#000000" stroke-opacity="1" stroke-width="1" stroke-linecap="square" stroke-linejoin="bevel" transform="matrix(1.23353,0,0,1.23353,342.825,9)"
font-family="DejaVu Serif" font-size="9" font-weight="400" font-style="normal" 
>
<text fill="#000000" fill-opacity="1" stroke="none" xml:space="preserve" x="0" y="17" font-family="Sans Serif" font-size="18" font-weight="400" font-style="normal" 
 >P = NP</text>
</g>

<g fill="none" stroke="#1f1c1b" stroke-opacity="1" stroke-width="1" stroke-linecap="square" stroke-linejoin="bevel" transform="matrix(1.23353,0,0,1.23353,342.825,9)"
font-family="DejaVu Serif" font-size="9" font-weight="400" font-style="normal" 
>
</g>

<g fill="none" stroke="#1f1c1b" stroke-opacity="1" stroke-width="1" stroke-linecap="square" stroke-linejoin="bevel" transform="matrix(1,0,0,1,0,0)"
font-family="DejaVu Serif" font-size="9" font-weight="400" font-style="normal" 
>
</g>

<g fill="none" stroke="#1f1c1b" stroke-opacity="1" stroke-width="1" stroke-linecap="square" stroke-linejoin="bevel" transform="matrix(1.23353,0,0,1.23353,342.825,9)"
font-family="DejaVu Serif" font-size="9" font-weight="400" font-style="normal" 
>
</g>

<g fill="none" stroke="#1f1c1b" stroke-opacity="1" stroke-width="1" stroke-linecap="square" stroke-linejoin="bevel" transform="matrix(1.23353,0,0,1.23353,342.825,9)"
font-family="DejaVu Serif" font-size="9" font-weight="400" font-style="normal" 
>
</g>

<g fill="none" stroke="none" transform="matrix(1.23353,0,0,1.23353,342.825,9)"
font-family="DejaVu Serif" font-size="9" font-weight="400" font-style="normal" 
>
</g>

<g fill="none" stroke="none" transform="matrix(1.23353,0,0,1.23353,342.825,9)"
font-family="DejaVu Serif" font-size="9" font-weight="400" font-style="normal" 
>
</g>

<g fill="none" stroke="none" transform="matrix(1.23353,0,0,1.23353,342.825,9)"
font-family="DejaVu Serif" font-size="9" font-weight="400" font-style="normal" 
>
</g>

<g fill="none" stroke="none" transform="matrix(1,0,0,1,0,0)"
font-family="DejaVu Serif" font-size="9" font-weight="400" font-style="normal" 
>
</g>

<g fill="none" stroke="none" transform="matrix(1,0,0,1,342.825,9)"
font-family="DejaVu Serif" font-size="9" font-weight="400" font-style="normal" 
>
</g>

<g fill="none" stroke="none" transform="matrix(1,0,0,1,342.825,9)"
font-family="DejaVu Serif" font-size="9" font-weight="400" font-style="normal" 
>
</g>

<g fill="none" stroke="none" transform="matrix(1,0,0,1,4.925,-0.3)"
font-family="DejaVu Serif" font-size="9" font-weight="400" font-style="normal" 
>
</g>

<g fill="none" stroke="none" transform="matrix(1,0,0,1,4.925,-0.3)"
font-family="DejaVu Serif" font-size="9" font-weight="400" font-style="normal" 
>
</g>

<g fill="none" stroke="#000000" stroke-opacity="1" stroke-width="1" stroke-linecap="square" stroke-linejoin="bevel" transform="matrix(1,0,0,1,0,0)"
font-family="DejaVu Serif" font-size="9" font-weight="400" font-style="normal" 
>
</g>
</g>
</svg>

 </g>
</svg>
